<svg xmlns="http://www.w3.org/2000/svg" viewBox="0 0 150 150"><title>CreativeArts</title><g id="ea4949c3-48af-4e1c-8a87-daeebc60e85b" data-name="Layer 2"><g id="436db796-b127-41f9-ac14-4ed6c1e8ab0b" data-name="Layer 1"><path d="M68,96.11a4.72,4.72,0,1,0,4.91,4.72A4.82,4.82,0,0,0,68,96.11Z" style="fill:#fdba13"/><path d="M56.84,83.49a4.71,4.71,0,1,0,4.91,4.71A4.82,4.82,0,0,0,56.84,83.49Z" style="fill:#fdba13"/><path d="M66.49,46A8.51,8.51,0,1,0,75,54.52,8.51,8.51,0,0,0,66.49,46Z" style="fill:#fdba13"/><path d="M58,73.37a4.92,4.92,0,1,0-4.92,4.72A4.82,4.82,0,0,0,58,73.37Z" style="fill:#fdba13"/><path d="M75,0a75,75,0,1,0,75,75A75,75,0,0,0,75,0Zm35.48,85.94C109.8,101.2,87.36,120.28,67.16,116s-39-40.17-19.52-67.55c0,0,11.89-15,22.22-15,0,0,11.89-1.58,15.71,13.46s2.89,16.6,13.91,20C108.26,69.56,111.15,70.68,110.48,85.94Z" style="fill:#fdba13"/><path d="M95.35,80.34a4.71,4.71,0,1,0,4.92,4.71A4.82,4.82,0,0,0,95.35,80.34Z" style="fill:#fdba13"/><path d="M85.52,94a4.71,4.71,0,1,0,4.92,4.71A4.82,4.82,0,0,0,85.52,94Z" style="fill:#fdba13"/></g></g></svg>